<svg xmlns="http://www.w3.org/2000/svg" width="21.204" height="21.205" viewBox="0 0 21.204 21.205"><defs><style>.a{fill:#fff;}</style></defs><path class="a" d="M25.706,12.888H17.718l3.228-3.322A8.292,8.292,0,0,0,9.307,9.448a8.1,8.1,0,0,0,0,11.533,8.27,8.27,0,0,0,11.639,0,7.673,7.673,0,0,0,2.4-5.761h2.356a11,11,0,0,1-3.11,7.41,10.666,10.666,0,0,1-14.985,0A10.414,10.414,0,0,1,7.587,7.81a10.588,10.588,0,0,1,14.9,0L25.706,4.5Zm-10.014-2.5V15.4l4.123,2.45-.848,1.425-5.042-2.992V10.39Z" transform="translate(-4.502 -4.5)"/></svg>