<svg xmlns="http://www.w3.org/2000/svg" width="43" height="41" viewBox="0 0 43 41"><defs><style>.a{fill:#fff;}.b{fill:none;stroke:#4ba7cf;stroke-linecap:round;stroke-linejoin:round;stroke-width:2px;}</style></defs><g transform="translate(-808 -1568)"><g transform="translate(364.002 -2654.38)"><rect class="a" width="43" height="41" rx="20.5" transform="translate(443.998 4222.38)"/><g transform="translate(457.876 4235.365)"><path class="b" d="M14.025,27.51V25.84a3.34,3.34,0,0,0-3.34-3.34H4.84A3.34,3.34,0,0,0,1.5,25.84v1.67" transform="translate(-1.5 -12.48)"/><path class="b" d="M13.43,7.84A3.34,3.34,0,1,1,10.09,4.5,3.34,3.34,0,0,1,13.43,7.84Z" transform="translate(-3.828 -4.5)"/><path class="b" d="M30,12v5.01" transform="translate(-14.136 -7.825)"/><path class="b" d="M30.51,16.5H25.5" transform="translate(-12.141 -9.82)"/></g></g></g></svg>