<svg xmlns="http://www.w3.org/2000/svg" width="36.446" height="36.278" viewBox="0 0 36.446 36.278"><defs><style>.a,.b{fill:none;stroke-linecap:round;stroke-width:2px;}.a,.b,.c{stroke:#4ba7cf;}.a{stroke-linejoin:round;}.c{fill:#4ba7cf;}</style></defs><g transform="translate(1 1)"><path class="a" d="M9.233-6295.49v-8.459H-18.879v34.278H9.233v-5.444" transform="translate(18.879 6303.949)"/><path class="b" d="M-13.762-6294.9h16" transform="translate(20.353 6301.108)"/><path class="b" d="M-13.762-6294.9h16" transform="translate(20.353 6306.597)"/><path class="b" d="M-13.762-6294.9h8.971" transform="translate(19.736 6312.086)"/><path class="b" d="M-13.762-6294.9h9.747" transform="translate(19.843 6317.574)"/><path class="b" d="M-13.762-6294.9h16" transform="translate(20.353 6323.063)"/><path class="c" d="M18.307,17.188l-5.152-5.2a7.342,7.342,0,1,0-1.114,1.129l5.118,5.167a.793.793,0,0,0,1.119.029A.8.8,0,0,0,18.307,17.188ZM7.386,13.179a5.8,5.8,0,1,1,4.1-1.7A5.762,5.762,0,0,1,7.386,13.179Z" transform="translate(13.064 12.193) rotate(-11)"/></g></svg>