<svg xmlns="http://www.w3.org/2000/svg" width="19.242" height="15.628" viewBox="0 0 19.242 15.628"><defs><style>.a{fill:#4fc3f5;}</style></defs><path class="a" d="M17.264,7.275c.012.171.012.342.012.513a11.143,11.143,0,0,1-11.22,11.22A11.144,11.144,0,0,1,0,17.238a8.158,8.158,0,0,0,.952.049,7.9,7.9,0,0,0,4.9-1.685,3.951,3.951,0,0,1-3.687-2.735,4.973,4.973,0,0,0,.745.061,4.171,4.171,0,0,0,1.038-.134A3.944,3.944,0,0,1,.781,8.924V8.875a3.972,3.972,0,0,0,1.783.5A3.949,3.949,0,0,1,1.343,4.1,11.209,11.209,0,0,0,9.474,8.228a4.452,4.452,0,0,1-.1-.9,3.947,3.947,0,0,1,6.825-2.7,7.764,7.764,0,0,0,2.5-.952,3.933,3.933,0,0,1-1.734,2.173,7.906,7.906,0,0,0,2.271-.61A8.477,8.477,0,0,1,17.264,7.275Z" transform="translate(0 -3.381)"/></svg>