<svg xmlns="http://www.w3.org/2000/svg" width="19.987" height="14.993" viewBox="0 0 19.987 14.993"><defs><style>.a{fill:#ee5b69;}</style></defs><path class="a" d="M19.857,7.811a3.035,3.035,0,0,0-2.889-3.17C14.8,4.539,12.6,4.5,10.346,4.5h-.7c-2.249,0-4.459.039-6.622.141A3.042,3.042,0,0,0,.136,7.819C.039,9.209,0,10.6,0,11.988s.039,2.78.133,4.174a3.045,3.045,0,0,0,2.885,3.182c2.272.105,4.6.152,6.973.148s4.7-.039,6.973-.148a3.046,3.046,0,0,0,2.889-3.182c.094-1.394.137-2.784.133-4.178S19.951,9.2,19.857,7.811ZM8.082,15.819V8.147l5.661,3.834Z" transform="translate(0 -4.5)"/></svg>